Coordinates
version=1
nRows=33
nColumns=33
inDegrees=yes

Units are S.I. units (second, meters, Newtons, ...)
Angles are in degrees.

endheader
time	ground_thorax_rot_x	ground_thorax_rot_y	ground_thorax_rot_z	ground_thorax_tx	ground_thorax_ty	ground_thorax_tz	clav_prot_r	clav_elev_r	scapula_abduction_r	scapula_elevation_r	scapula_upward_rot_r	scapula_winging_r	shoulder_elv_r	plane_of_elev_r	axial_rot_r	elbow_flexion_r	pro_sup_r	wrist_flex_r	wrist_dev_r	clav_prot_l	clav_elev_l	scapula_abduction_l	scapula_elevation_l	scapula_upward_rot_l	scapula_winging_l	shoulder_elv_l	plane_of_elev_l	axial_rot_l	elbow_flexion_l	pro_sup_l	wrist_flex_l	wrist_dev_l	
10.9000	-33.244988	-23.982269	30.190842	-64.265427	825.255376	-40.834202	26.778414	-45.000000	38.700804	-45.000000	-45.000000	-4065.784503	-2623.738734	159.636565	36.087459	719.300316	159.369835	13.050183	15.386038	-0.820594	32.178540	-30.606660	-45.000000	-45.000000	-3873.724962	-1002.853486	26.842313	49.806195	1429.348757	35.656271	14.644052	-17.257048	
10.9100	-33.376668	-23.862938	29.899384	-65.228303	826.780852	-41.022271	26.717289	-45.000000	38.706807	-45.000000	-45.000000	-4065.812460	-2623.730207	159.594571	35.825001	719.229862	158.822875	13.040109	15.409954	-0.782163	32.206189	-30.720130	-45.000000	-45.000000	-3873.657713	-1002.819377	26.895801	50.032822	1429.381980	35.545088	14.679456	-17.348021	
10.9200	-33.496592	-23.742753	29.613325	-66.150563	828.275403	-41.212380	26.664414	-45.000000	38.731218	-45.000000	-45.000000	-4065.848086	-2623.724090	159.556268	35.556180	719.149519	158.262090	13.022593	15.436119	-0.749258	32.234084	-30.831116	-45.000000	-45.000000	-3873.604226	-1002.790725	26.948848	50.260137	1429.410309	35.433153	14.710412	-17.437976	
10.9300	-33.613090	-23.626070	29.335672	-67.034093	829.737774	-41.402083	26.609376	-45.000000	38.755178	-45.000000	-45.000000	-4065.881572	-2623.716530	159.521517	35.292746	719.063483	157.684574	12.998842	15.457807	-0.716541	32.261931	-30.939202	-45.000000	-45.000000	-3873.556934	-1002.760222	26.998830	50.482616	1429.438938	35.315802	14.735214	-17.528095	
10.9400	-33.721147	-23.520939	29.076348	-67.879210	831.167204	-41.588706	26.561674	-45.000000	38.778515	-45.000000	-45.000000	-4065.917205	-2623.709315	159.488002	35.037480	718.980586	157.089292	12.967336	15.472124	-0.688682	32.289854	-31.034972	-45.000000	-45.000000	-3873.516012	-1002.723384	27.045358	50.697801	1429.465994	35.189922	14.751282	-17.617633	
10.9500	-33.830570	-23.427252	28.830546	-68.685183	832.563753	-41.769504	26.513549	-45.000000	38.786267	-45.000000	-45.000000	-4065.947667	-2623.703137	159.450688	34.802642	718.906236	156.480545	12.932705	15.472703	-0.661932	32.315677	-31.123014	-45.000000	-45.000000	-3873.466475	-1002.680877	27.090770	50.905604	1429.493412	35.052938	14.762989	-17.713370	
10.9600	-33.934220	-23.341930	28.600734	-69.450561	833.927974	-41.941879	26.468103	-45.000000	38.792174	-45.000000	-45.000000	-4065.981156	-2623.698127	159.412502	34.582535	718.836390	155.869520	12.899545	15.462422	-0.638959	32.340944	-31.202488	-45.000000	-45.000000	-3873.413911	-1002.638253	27.134814	51.106276	1429.516705	34.905519	14.768129	-17.815472	
10.9700	-34.034536	-23.264094	28.387133	-70.173752	835.260487	-42.103709	26.420030	-45.000000	38.789190	-45.000000	-45.000000	-4066.013917	-2623.688361	159.372596	34.378200	718.767738	155.270093	12.876614	15.439063	-0.618414	32.364214	-31.276534	-45.000000	-45.000000	-3873.354907	-1002.595154	27.177412	51.296288	1429.537041	34.749286	14.768863	-17.926535	
10.9800	-34.125312	-23.191983	28.192227	-70.853610	836.561545	-42.253763	26.375544	-45.000000	38.789856	-45.000000	-45.000000	-4066.051533	-2623.674846	159.331915	34.179463	718.700142	154.699080	12.868351	15.406287	-0.603044	32.387340	-31.344571	-45.000000	-45.000000	-3873.296240	-1002.556141	27.220516	51.475309	1429.550957	34.587998	14.763456	-18.045557	
10.9900	-34.208364	-23.120890	28.011145	-71.489744	837.830441	-42.392105	26.333609	-45.000000	38.794491	-45.000000	-45.000000	-4066.095079	-2623.657012	159.290169	33.984258	718.627617	154.173854	12.881370	15.368809	-0.593364	32.411748	-31.410815	-45.000000	-45.000000	-3873.237514	-1002.526071	27.266898	51.644035	1429.560214	34.425927	14.756415	-18.175547	
11.0000	-34.283329	-23.053107	27.848411	-72.082950	839.065885	-42.520396	26.290524	-45.000000	38.805846	-45.000000	-45.000000	-4066.141545	-2623.638727	159.252682	33.784836	718.555061	153.706013	12.913567	15.329224	-0.587445	32.433817	-31.473921	-45.000000	-45.000000	-3873.182678	-1002.502166	27.313224	51.801458	1429.566637	34.268350	14.743154	-18.310880	
11.0100	-34.350000	-22.996209	27.706760	-72.634674	840.265745	-42.641766	26.247641	-45.000000	38.816626	-45.000000	-45.000000	-4066.185541	-2623.616304	159.218797	33.584325	718.483323	153.297522	12.961485	15.292865	-0.586852	32.459000	-31.524121	-45.000000	-45.000000	-3873.139888	-1002.475210	27.350793	51.943356	1429.577396	34.120485	14.722644	-18.446397	
11.0200	-34.414772	-22.954187	27.580723	-73.146942	841.427862	-42.760292	26.206454	-45.000000	38.822110	-45.000000	-45.000000	-4066.221845	-2623.600284	159.182211	33.384059	718.426397	152.942729	13.018936	15.255700	-0.589636	32.477991	-31.562679	-45.000000	-45.000000	-3873.095706	-1002.445274	27.386361	52.074088	1429.592605	33.989424	14.696260	-18.582044	
11.0300	-34.470429	-22.914503	27.465554	-73.621882	842.550136	-42.880163	26.164681	-45.000000	38.828553	-45.000000	-45.000000	-4066.259251	-2623.580387	159.147981	33.180761	718.364402	152.635204	13.086218	15.230215	-0.596168	32.504702	-31.593413	-45.000000	-45.000000	-3873.065987	-1002.419200	27.415649	52.197038	1429.613112	33.884028	14.666768	-18.717516	
11.0400	-34.525031	-22.882379	27.355928	-74.062095	843.631009	-43.004769	26.124539	-45.000000	38.831892	-45.000000	-45.000000	-4066.290707	-2623.571849	159.108942	32.976252	718.319759	152.365852	13.156769	15.201777	-0.602843	32.514212	-31.617087	-45.000000	-45.000000	-3873.024546	-1002.397862	27.454160	52.315625	1429.634368	33.814424	14.635870	-18.853856	
11.0500	-34.571799	-22.853058	27.249681	-74.470601	844.668822	-43.135988	26.081686	-45.000000	38.836899	-45.000000	-45.000000	-4066.319400	-2623.560524	159.072106	32.774842	718.268992	152.130925	13.230906	15.188560	-0.612335	32.536507	-31.635023	-45.000000	-45.000000	-3873.000221	-1002.379147	27.478171	52.426126	1429.662948	33.787940	14.599100	-18.989347	
11.0600	-34.615960	-22.830949	27.147031	-74.851344	845.661351	-43.273888	26.039808	-45.000000	38.839574	-45.000000	-45.000000	-4066.348136	-2623.558695	159.028543	32.575457	718.228288	151.923364	13.311547	15.164972	-0.619832	32.531958	-31.645659	-45.000000	-45.000000	-3872.959374	-1002.368686	27.520565	52.533759	1429.687534	33.811233	14.560137	-19.129698	
11.0700	-34.651780	-22.810985	27.054690	-75.209117	846.605373	-43.417107	25.995616	-45.000000	38.837934	-45.000000	-45.000000	-4066.378458	-2623.548689	158.992457	32.380455	718.173945	151.747051	13.398807	15.155323	-0.629532	32.545436	-31.652012	-45.000000	-45.000000	-3872.940277	-1002.357881	27.546459	52.630709	1429.721673	33.884227	14.511173	-19.273570	
11.0800	-34.691200	-22.799280	26.967051	-75.549174	847.496335	-43.563535	25.954585	-45.000000	38.825957	-45.000000	-45.000000	-4066.406173	-2623.550538	158.950826	32.196265	718.133986	151.603248	13.493297	15.132943	-0.640905	32.536372	-31.653512	-45.000000	-45.000000	-3872.907642	-1002.347923	27.583367	52.721867	1429.757548	34.003809	14.450762	-19.425995	
11.0900	-34.727467	-22.792250	26.884490	-75.876215	848.328708	-43.711227	25.909997	-45.000000	38.813564	-45.000000	-45.000000	-4066.429523	-2623.545853	158.920697	32.029433	718.081194	151.503102	13.594231	15.130536	-0.658387	32.558721	-31.652272	-45.000000	-45.000000	-3872.906545	-1002.332368	27.587642	52.800452	1429.809465	34.160805	14.372798	-19.583977	
11.1000	-34.764841	-22.784674	26.802489	-76.193240	849.096269	-43.859005	25.870892	-45.000000	38.797021	-45.000000	-45.000000	-4066.461268	-2623.549384	158.884122	31.877709	718.035160	151.449103	13.712337	15.111176	-0.680885	32.556448	-31.650172	-45.000000	-45.000000	-3872.894212	-1002.328578	27.610691	52.877936	1429.857077	34.347937	14.284131	-19.754454	
11.1100	-34.795028	-22.781286	26.733924	-76.500888	849.793188	-44.006817	25.829707	-45.000000	38.781228	-45.000000	-45.000000	-4066.491168	-2623.542304	158.864539	31.741202	717.980765	151.454706	13.839157	15.107737	-0.705669	32.582661	-31.644008	-45.000000	-45.000000	-3872.911518	-1002.322144	27.609001	52.943569	1429.916009	34.557096	14.183298	-19.927580	
11.1200	-34.828392	-22.784782	26.669180	-76.797217	850.414511	-44.155638	25.795292	-45.000000	38.762667	-45.000000	-45.000000	-4066.523520	-2623.547755	158.841149	31.624725	717.942218	151.523092	13.979989	15.087104	-0.734180	32.585933	-31.633994	-45.000000	-45.000000	-3872.916860	-1002.324093	27.622433	53.005760	1429.970967	34.782893	14.073298	-20.106822	
11.1300	-34.855821	-22.799322	26.612872	-77.078019	850.956402	-44.306995	25.756037	-45.000000	38.758937	-45.000000	-45.000000	-4066.551421	-2623.549328	158.835655	31.525458	717.894280	151.660740	14.130679	15.081538	-0.760835	32.611520	-31.612886	-45.000000	-45.000000	-3872.944101	-1002.328177	27.616430	53.058658	1430.037029	35.018105	13.956584	-20.287818	
11.1400	-34.882612	-22.821031	26.564440	-77.337966	851.416549	-44.462650	25.725166	-45.000000	38.753198	-45.000000	-45.000000	-4066.589055	-2623.561716	158.823005	31.437595	717.853830	151.862953	14.295881	15.054922	-0.790216	32.605612	-31.587410	-45.000000	-45.000000	-3872.954025	-1002.346201	27.631871	53.110775	1430.093276	35.261411	13.837475	-20.470411	
11.1500	-34.902329	-22.858501	26.533072	-77.571700	851.793839	-44.624120	25.692881	-45.000000	38.751867	-45.000000	-45.000000	-4066.618062	-2623.569851	158.822978	31.356532	717.816063	152.128354	14.467362	15.034872	-0.815684	32.617843	-31.548168	-45.000000	-45.000000	-3872.977815	-1002.360094	27.633367	53.153929	1430.155253	35.507429	13.716540	-20.652742	
11.1600	-34.924911	-22.904557	26.512584	-77.775041	852.088408	-44.792608	25.672665	-45.000000	38.739205	-45.000000	-45.000000	-4066.650267	-2623.590909	158.811149	31.284833	717.793224	152.451109	14.637322	14.997249	-0.848478	32.603614	-31.515475	-45.000000	-45.000000	-3872.987131	-1002.377617	27.642217	53.195593	1430.206893	35.756316	13.592542	-20.826568	
11.1700	-34.940266	-22.961694	26.505652	-77.945443	852.300751	-44.968823	25.651410	-45.000000	38.731819	-45.000000	-45.000000	-4066.673468	-2623.609215	158.808063	31.212287	717.775807	152.824749	14.814263	14.962197	-0.878213	32.608318	-31.474197	-45.000000	-45.000000	-3873.007298	-1002.390311	27.641628	53.233679	1430.255083	36.003533	13.472121	-21.002148	
11.1800	-34.955150	-23.025489	26.510221	-78.082443	852.432012	-45.153082	25.641485	-45.000000	38.711268	-45.000000	-45.000000	-4066.699253	-2623.634912	158.790523	31.141659	717.772301	153.245451	14.984373	14.908497	-0.912332	32.587082	-31.436773	-45.000000	-45.000000	-3873.017233	-1002.405736	27.651573	53.272940	1430.293768	36.251860	13.351644	-21.164637	
11.1900	-34.957787	-23.103916	26.531481	-78.187190	852.483396	-45.345055	25.627487	-45.000000	38.693953	-45.000000	-45.000000	-4066.708937	-2623.651544	158.783646	31.064040	717.780127	153.703214	15.166024	14.856861	-0.940480	32.599450	-31.384648	-45.000000	-45.000000	-3873.044810	-1002.414268	27.650252	53.312459	1430.334687	36.496252	13.236184	-21.334259	
11.2000	-34.957845	-23.186014	26.561477	-78.262092	852.456478	-45.544146	25.620508	-45.000000	38.672283	-45.000000	-45.000000	-4066.720336	-2623.673004	158.769555	30.985144	717.792944	154.198448	15.337030	14.794889	-0.969806	32.592893	-31.338659	-45.000000	-45.000000	-3873.068299	-1002.427032	27.654094	53.357917	1430.377010	36.741398	13.121260	-21.487856	
11.2100	-34.950621	-23.271172	26.594489	-78.309930	852.353379	-45.749085	25.609919	-45.000000	38.658553	-45.000000	-45.000000	-4066.725581	-2623.692014	158.764035	30.899959	717.804520	154.719291	15.518299	14.738460	-0.995726	32.608410	-31.280872	-45.000000	-45.000000	-3873.103050	-1002.438353	27.655553	53.408588	1430.424574	36.981357	13.010988	-21.649417	
11.2200	-34.943388	-23.351586	26.625930	-78.333428	852.177382	-45.958278	25.606487	-45.000000	38.641992	-45.000000	-45.000000	-4066.737995	-2623.718274	158.748936	30.816100	717.813186	155.260193	15.682261	14.674922	-1.022650	32.595418	-31.227469	-45.000000	-45.000000	-3873.130672	-1002.456448	27.667659	53.467344	1430.476994	37.218872	12.901374	-21.790774	
